<?xml version="1.0" encoding="utf-8"?>
<svg viewBox="0 0 40 40" xmlns="http://www.w3.org/2000/svg">
  <g>
    <path d="M 20 40 C 9 40 0 31 0 20 C 0 9 9 0 20 0 C 21.464 -0.042 21.464 1.958 20 2 C 10.1 2 2 10.1 2 20 C 2 29.9 10.1 38 20 38 C 29.9 38 38 29.9 38 20 C 37.996 18.712 39.996 18.712 40 20 C 40 31 31 40 20 40 Z"/>
  </g>
  <path d="M 28.089 19.511 L 21.875 25.443 L 21.875 11.435 C 21.875 10.917 21.495 10.493 21.028 10.493 C 20.562 10.493 20.182 10.917 20.182 11.435 L 20.182 25.443 L 13.968 19.511 C 13.613 19.169 13.079 19.213 12.775 19.608 C 12.47 20.003 12.509 20.598 12.864 20.937 L 21.028 28.745 L 29.192 20.937 C 29.546 20.598 29.588 20.003 29.281 19.608 C 28.977 19.213 28.444 19.169 28.089 19.511 Z" style=""/>
</svg>