<svg width="16" height="13" viewBox="0 0 16 13" fill="none" xmlns="http://www.w3.org/2000/svg">
<path d="M1.37608 7.26959H12.972L9.03405 11.2076C8.74352 11.4981 8.74352 11.9691 9.03405 12.2596C9.32458 12.5501 9.79572 12.5501 10.0863 12.2596L15.2942 7.0516C15.5848 6.76107 15.5848 6.28993 15.2942 5.99959L10.0863 0.7916C9.94099 0.646334 9.75052 0.573608 9.56006 0.573608C9.36978 0.573608 9.17932 0.646334 9.03405 0.7916C8.74352 1.08213 8.74352 1.55327 9.03405 1.84361L12.972 5.7816H1.37608C0.965205 5.7816 0.63208 6.11472 0.63208 6.52559C0.63208 6.93647 0.965205 7.26959 1.37608 7.26959Z" fill="black"/>
</svg>
