
<svg width="56" height="62" viewBox="0 0 56 62" fill="none" xmlns="http://www.w3.org/2000/svg">
<path d="M17.7188 11.0381C18.126 11.0381 18.5165 10.8763 18.8044 10.5884C19.0924 10.3004 19.2541 9.90993 19.2541 9.50273C19.2541 9.09554 19.0924 8.70502 18.8044 8.41709C18.5165 8.12916 18.126 7.96741 17.7188 7.96741C17.3116 7.96741 16.9211 8.12916 16.6332 8.41709C16.3452 8.70502 16.1835 9.09554 16.1835 9.50273C16.1835 9.90993 16.3452 10.3004 16.6332 10.5884C16.9211 10.8763 17.3116 11.0381 17.7188 11.0381Z" fill="#27334B"/>
<path d="M0.978027 30.6042V40.6391C0.979974 42.4512 1.51416 44.2227 2.51425 45.7338C3.51434 47.2448 4.93627 48.4288 6.60346 49.1387L4.44172 57.1715C4.23194 58.14 4.40296 59.152 4.91931 59.9977C5.43566 60.8435 6.25772 61.458 7.21501 61.7139C8.1723 61.9698 9.19135 61.8475 10.0608 61.3722C10.9303 60.8969 11.5835 60.1052 11.885 59.1613L14.3415 49.8634H41.6089L44.0654 59.1613C44.3669 60.1052 45.0201 60.8969 45.8896 61.3722C46.759 61.8475 47.7781 61.9698 48.7354 61.7139C49.6927 61.458 50.5147 60.8435 51.0311 59.9977C51.5474 59.152 51.7185 58.14 51.5087 57.1715L49.3715 49.1387C51.0433 48.4325 52.4704 47.2502 53.475 45.7388C54.4797 44.2275 55.0175 42.4539 55.0215 40.6391V30.6042C55.0109 28.2325 54.2161 25.9309 52.761 24.0581C51.3058 22.1852 49.2719 20.8463 46.9764 20.25L48.5486 8.97457C48.7458 7.93476 48.7092 6.8641 48.4415 5.84017C48.1739 4.81623 47.6818 3.86465 47.001 3.05435C46.2811 2.26214 45.4002 1.63308 44.4172 1.20939C43.4342 0.785694 42.372 0.577178 41.3018 0.597833H14.6977C13.6275 0.577178 12.5653 0.785694 11.5823 1.20939C10.5993 1.63308 9.71839 2.26214 8.99857 3.05435C8.31951 3.86323 7.82845 4.81274 7.56082 5.8344C7.2932 6.85605 7.25567 7.92438 7.45096 8.96229L9.02313 20.25C6.72758 20.8463 4.69374 22.1852 3.23856 24.0581C1.78338 25.9309 0.988581 28.2325 0.978027 30.6042ZM9.57585 58.5226C9.48138 58.8793 9.24908 59.1839 8.93006 59.3693C8.61103 59.5547 8.23141 59.6058 7.87471 59.5114C7.51801 59.4169 7.21345 59.1846 7.02802 58.8656C6.84259 58.5465 6.79149 58.1669 6.88596 57.8102L8.99857 49.7283C9.40583 49.7822 9.81603 49.8109 10.2268 49.8142H11.8481L9.57585 58.5226ZM49.2118 57.8102C49.3063 58.1669 49.2552 58.5465 49.0698 58.8656C48.8843 59.1846 48.5798 59.4169 48.2231 59.5114C47.8664 59.6058 47.4868 59.5547 47.1677 59.3693C46.8487 59.1839 46.6164 58.8793 46.5219 58.5226L44.2005 49.9248H45.8218C46.2326 49.9215 46.6428 49.8927 47.0501 49.8388L49.2118 57.8102ZM9.90748 8.60609C9.75773 7.92145 9.76042 7.21224 9.91537 6.52875C10.0703 5.84526 10.3737 5.20422 10.8041 4.65109C11.3011 4.12182 11.9058 3.70538 12.5775 3.42992C13.2492 3.15446 13.9722 3.02638 14.6977 3.05435H41.3018C42.0273 3.02638 42.7503 3.15446 43.422 3.42992C44.0937 3.70538 44.6985 4.12182 45.1954 4.65109C45.6385 5.19813 45.9553 5.83633 46.123 6.52004C46.2908 7.20375 46.3054 7.91609 46.1657 8.60609L44.5444 19.8815H44.2742C43.4098 19.8815 42.5807 20.2241 41.9683 20.8341C41.3559 21.4442 41.0103 22.272 41.007 23.1364V31.2061C40.1046 30.6057 39.0449 30.2852 37.961 30.2849H18.0386C16.9546 30.2852 15.895 30.6057 14.9925 31.2061V23.1241C14.9892 22.2598 14.6436 21.4319 14.0312 20.8218C13.4189 20.2118 12.5897 19.8692 11.7253 19.8692H11.4428L9.90748 8.60609ZM15.017 35.7875C15.0154 35.3865 15.093 34.989 15.2454 34.618C15.3977 34.2471 15.6219 33.9098 15.9049 33.6257C16.1879 33.3415 16.5242 33.116 16.8946 32.9622C17.265 32.8083 17.6621 32.7291 18.0631 32.7291H37.961C38.362 32.7291 38.7591 32.8083 39.1295 32.9622C39.4999 33.116 39.8362 33.3415 40.1192 33.6257C40.4022 33.9098 40.6264 34.2471 40.7787 34.618C40.9311 34.989 41.0087 35.3865 41.007 35.7875V38.8459H14.9925L15.017 35.7875ZM11.7499 22.2766C11.9628 22.2766 12.1671 22.3603 12.3188 22.5097C12.4705 22.6591 12.5573 22.8621 12.5605 23.075V38.7967H11.8481C11.5224 38.7967 11.21 38.9262 10.9796 39.1565C10.7493 39.3868 10.6199 39.6992 10.6199 40.025C10.6199 40.3508 10.7493 40.6632 10.9796 40.8935C11.21 41.1239 11.5224 41.2533 11.8481 41.2533H44.176C44.5017 41.2533 44.8141 41.1239 45.0445 40.8935C45.2748 40.6632 45.4042 40.3508 45.4042 40.025C45.4042 39.6992 45.2748 39.3868 45.0445 39.1565C44.8141 38.9262 44.5017 38.7967 44.176 38.7967H43.4636V23.1241C43.4668 22.9113 43.5536 22.7082 43.7053 22.5588C43.857 22.4095 44.0613 22.3257 44.2742 22.3258C46.4709 22.3258 48.5779 23.1976 50.1323 24.7497C51.6868 26.3019 52.5617 28.4075 52.565 30.6042V40.6391C52.565 42.434 51.852 44.1554 50.5828 45.4246C49.3136 46.6938 47.5922 47.4069 45.7973 47.4069H10.2268C9.33602 47.4101 8.45333 47.2374 7.62939 46.8988C6.80546 46.5601 6.05649 46.0621 5.42544 45.4333C4.7944 44.8046 4.29369 44.0574 3.95205 43.2347C3.61041 42.412 3.43454 41.53 3.43455 40.6391V30.6042C3.4378 28.4075 4.31273 26.3019 5.86719 24.7497C7.42166 23.1976 9.52859 22.3258 11.7253 22.3258L11.7499 22.2766Z" fill="#27334B"/>
<path d="M27.9997 11.0381C28.4069 11.0381 28.7974 10.8763 29.0853 10.5884C29.3733 10.3004 29.535 9.90993 29.535 9.50273C29.535 9.09554 29.3733 8.70502 29.0853 8.41709C28.7974 8.12916 28.4069 7.96741 27.9997 7.96741C27.5925 7.96741 27.202 8.12916 26.914 8.41709C26.6261 8.70502 26.4644 9.09554 26.4644 9.50273C26.4644 9.90993 26.6261 10.3004 26.914 10.5884C27.202 10.8763 27.5925 11.0381 27.9997 11.0381Z" fill="#27334B"/>
<path d="M38.2804 11.0381C38.6876 11.0381 39.0782 10.8763 39.3661 10.5884C39.654 10.3004 39.8158 9.90993 39.8158 9.50273C39.8158 9.09554 39.654 8.70502 39.3661 8.41709C39.0782 8.12916 38.6876 7.96741 38.2804 7.96741C37.8732 7.96741 37.4827 8.12916 37.1948 8.41709C36.9069 8.70502 36.7451 9.09554 36.7451 9.50273C36.7451 9.90993 36.9069 10.3004 37.1948 10.5884C37.4827 10.8763 37.8732 11.0381 38.2804 11.0381Z" fill="#27334B"/>
<path d="M17.7188 18.4323C18.126 18.4323 18.5165 18.2705 18.8044 17.9826C19.0924 17.6946 19.2541 17.3041 19.2541 16.8969C19.2574 16.6932 19.2201 16.491 19.1444 16.3018C19.0687 16.1127 18.9561 15.9406 18.8132 15.7954C18.6703 15.6502 18.5 15.5349 18.3121 15.4562C18.1242 15.3775 17.9225 15.337 17.7188 15.337C17.3116 15.337 16.9211 15.4988 16.6332 15.7867C16.3452 16.0747 16.1835 16.4652 16.1835 16.8724C16.1835 17.2796 16.3452 17.6701 16.6332 17.958C16.9211 18.2459 17.3116 18.4077 17.7188 18.4077V18.4323Z" fill="#27334B"/>
<path d="M27.9997 18.4323C28.4069 18.4323 28.7974 18.2705 29.0853 17.9826C29.3733 17.6946 29.535 17.3041 29.535 16.8969C29.5383 16.6932 29.501 16.491 29.4253 16.3018C29.3496 16.1127 29.237 15.9406 29.0941 15.7954C28.9512 15.6502 28.7809 15.5349 28.593 15.4562C28.4051 15.3775 28.2034 15.337 27.9997 15.337C27.5925 15.337 27.202 15.4988 26.914 15.7867C26.6261 16.0747 26.4644 16.4652 26.4644 16.8724C26.4644 17.2796 26.6261 17.6701 26.914 17.958C27.202 18.2459 27.5925 18.4077 27.9997 18.4077V18.4323Z" fill="#27334B"/>
<path d="M38.2804 18.4323C38.6876 18.4323 39.0782 18.2705 39.3661 17.9826C39.654 17.6946 39.8158 17.3041 39.8158 16.8969C39.819 16.6932 39.7817 16.491 39.706 16.3018C39.6303 16.1127 39.5178 15.9406 39.3749 15.7954C39.232 15.6502 39.0616 15.5349 38.8737 15.4562C38.6858 15.3775 38.4841 15.337 38.2804 15.337C37.8732 15.337 37.4827 15.4988 37.1948 15.7867C36.9069 16.0747 36.7451 16.4652 36.7451 16.8724C36.7451 17.2796 36.9069 17.6701 37.1948 17.958C37.4827 18.2459 37.8732 18.4077 38.2804 18.4077V18.4323Z" fill="#27334B"/>
<path d="M22.8656 25.8387C23.2728 25.8387 23.6634 25.677 23.9513 25.389C24.2392 25.1011 24.401 24.7106 24.401 24.3034C24.401 23.9997 24.3109 23.7029 24.1422 23.4504C23.9735 23.1979 23.7337 23.0011 23.4532 22.8849C23.1726 22.7687 22.8639 22.7383 22.5661 22.7976C22.2683 22.8568 21.9947 23.003 21.78 23.2178C21.5653 23.4325 21.4191 23.706 21.3598 24.0039C21.3006 24.3017 21.331 24.6104 21.4472 24.8909C21.5634 25.1715 21.7602 25.4113 22.0127 25.58C22.2652 25.7487 22.562 25.8387 22.8656 25.8387Z" fill="#27334B"/>
<path d="M33.1337 25.8387C33.9817 25.8387 34.669 25.1513 34.669 24.3034C34.669 23.4555 33.9817 22.7681 33.1337 22.7681C32.2858 22.7681 31.5984 23.4555 31.5984 24.3034C31.5984 25.1513 32.2858 25.8387 33.1337 25.8387Z" fill="#27334B"/>
</svg>
