<?xml version="1.0" encoding="utf-8"?>
<svg viewBox="0 0 32 32" xmlns="http://www.w3.org/2000/svg">
  <path d="M 25.843 0.028 L 6.19 0.028 C 2.798 0.028 0.049 2.777 0.049 6.168 L 0.049 25.817 C 0.049 29.207 2.798 31.956 6.19 31.956 L 25.843 31.956 C 29.236 31.956 31.985 29.207 31.985 25.817 L 31.985 6.168 C 31.985 2.777 29.236 0.028 25.843 0.028 Z M 29.529 25.817 C 29.529 27.851 27.878 29.5 25.843 29.5 L 17.245 29.5 L 17.245 18.449 L 22.159 18.449 C 23.104 18.449 23.695 17.425 23.222 16.606 C 23.003 16.227 22.596 15.993 22.159 15.993 L 17.245 15.993 L 17.245 13.535 C 17.245 12.179 18.344 11.08 19.702 11.08 L 22.159 11.08 C 23.104 11.08 23.695 10.057 23.222 9.237 C 23.003 8.858 22.596 8.624 22.159 8.624 L 19.702 8.624 C 16.988 8.624 14.789 10.823 14.789 13.535 L 14.789 15.993 L 11.103 15.993 C 10.158 15.993 9.567 17.016 10.04 17.834 C 10.259 18.215 10.665 18.449 11.103 18.449 L 14.789 18.449 L 14.789 29.5 L 6.19 29.5 C 4.155 29.5 2.506 27.851 2.506 25.817 L 2.506 6.168 C 2.506 4.133 4.155 2.484 6.19 2.484 L 25.843 2.484 C 27.878 2.484 29.529 4.133 29.529 6.168 L 29.529 25.817 Z" style="" transform="matrix(0.9999999999999999, 0, 0, 0.9999999999999999, 0, -8.881784197001252e-16)"/>
</svg>