<svg width="80" height="29" viewBox="0 0 80 29" fill="none" xmlns="http://www.w3.org/2000/svg">
<mask id="mask0_922_17" style="mask-type:luminance" maskUnits="userSpaceOnUse" x="0" y="0" width="79" height="29">
<path d="M78.9018 0H0V28.9018H78.9018V0Z" fill="white"/>
</mask>
<g mask="url(#mask0_922_17)">
<path d="M2.40992 10.1621H5.18343V11.4509H1.10049V3.53246H2.64706V10.3992L2.40992 10.1621ZM8.97994 3.53246V11.4509H7.43337V3.53246H8.97994ZM16.2993 4.82127H13.4536L13.6805 4.58413V7.11019L13.4536 6.87305H15.9591V8.14124H13.4536L13.6805 7.9041V11.4509H12.1339V3.53246H16.2993V4.82127ZM23.0951 3.53246V4.82127H21.1774L21.4145 4.58413V11.4509H19.868V4.58413L20.0948 4.82127H18.2492V3.53246H23.0951ZM31.0412 11.6262C30.6425 11.6262 30.237 11.5609 29.8246 11.4303C29.4122 11.2997 29.01 11.09 28.6182 10.8014L29.2059 9.71874C29.5015 9.90433 29.8177 10.0453 30.1545 10.1415C30.4913 10.2308 30.7972 10.2755 31.0721 10.2755C31.354 10.2755 31.5877 10.1896 31.7732 10.0178C31.9657 9.84591 32.0619 9.61564 32.0619 9.32695C32.0619 9.11386 32.0001 8.93858 31.8764 8.80111C31.7595 8.65677 31.6014 8.53304 31.4021 8.42993C31.2027 8.32683 30.9828 8.22716 30.7422 8.13093C30.5085 8.0347 30.2714 7.92816 30.0308 7.81131C29.7902 7.68758 29.5702 7.5398 29.3709 7.36796C29.1716 7.18924 29.01 6.96928 28.8863 6.70809C28.7695 6.44001 28.711 6.11008 28.711 5.71828C28.711 5.19588 28.8348 4.76284 29.0822 4.41916C29.3365 4.06861 29.6596 3.80397 30.0514 3.62526C30.4432 3.44654 30.8487 3.35718 31.268 3.35718C31.598 3.35718 31.9176 3.40874 32.2269 3.51184C32.5362 3.61495 32.8112 3.7696 33.0517 3.97581C33.2923 4.18202 33.471 4.44666 33.5879 4.76972L32.4537 5.38835C32.3163 5.14089 32.1341 4.95874 31.9073 4.84189C31.6805 4.71817 31.4502 4.6563 31.2165 4.6563C31.0515 4.6563 30.8969 4.69411 30.7525 4.76972C30.6082 4.83845 30.4879 4.945 30.3916 5.08934C30.3023 5.22682 30.2576 5.40209 30.2576 5.61518C30.2576 5.82139 30.3195 5.99666 30.4432 6.14101C30.5669 6.27848 30.7285 6.39877 30.9278 6.50188C31.1271 6.60498 31.3471 6.70465 31.5877 6.80088C31.8282 6.89711 32.0688 7.00709 32.3094 7.13082C32.55 7.24767 32.7699 7.39201 32.9693 7.56386C33.1686 7.7357 33.3301 7.94878 33.4539 8.2031C33.5776 8.45743 33.6394 8.77018 33.6394 9.14136C33.6394 9.67063 33.5226 10.1209 33.2889 10.492C33.0552 10.8632 32.739 11.145 32.3403 11.3375C31.9485 11.53 31.5155 11.6262 31.0412 11.6262ZM37.852 10.1621H40.8317V11.4509H36.5323V3.53246H40.7286V4.82127H37.852L38.0788 4.53258V6.97616L37.852 6.74933H40.3884V8.01752H37.852L38.0788 7.71851V10.4508L37.852 10.1621ZM43.9174 11.4509V3.53246C44.2542 3.51871 44.5876 3.5084 44.9175 3.50153C45.2543 3.48778 45.6667 3.48091 46.1547 3.48091C46.7046 3.48091 47.1961 3.56339 47.6291 3.72836C48.0691 3.88645 48.4127 4.13734 48.6602 4.48102C48.9145 4.82471 49.0417 5.27493 49.0417 5.8317C49.0417 6.27848 48.942 6.70465 48.7427 7.11019C48.5433 7.50887 48.234 7.83536 47.8147 8.08969C47.3954 8.34401 46.8559 8.47118 46.196 8.47118H44.6907V7.18237H46.3094C46.6943 7.18237 46.983 7.06895 47.1755 6.84212C47.3679 6.61529 47.4642 6.33347 47.4642 5.99666C47.4642 5.61174 47.3714 5.31274 47.1858 5.09965C47.0002 4.8797 46.6737 4.76972 46.2063 4.76972C46.0826 4.76972 45.9176 4.77315 45.7114 4.78003C45.5052 4.7869 45.3437 4.79721 45.2268 4.81096L45.4639 4.57382V11.4509H43.9174ZM45.8867 7.71851L47.3817 7.56386L48.6189 10.0899C48.6808 10.2068 48.7461 10.2893 48.8148 10.3374C48.8836 10.3855 48.9764 10.4096 49.0932 10.4096C49.1138 10.4096 49.1379 10.4096 49.1654 10.4096C49.1998 10.4096 49.2307 10.4061 49.2582 10.3992L49.3097 11.5334C49.1998 11.5609 49.0864 11.5815 48.9695 11.5953C48.8526 11.609 48.7461 11.6159 48.6499 11.6159C48.2924 11.6159 48.0038 11.53 47.7838 11.3581C47.5638 11.1794 47.3817 10.932 47.2373 10.6158L45.8867 7.71851ZM53.3999 11.4509L51.1523 3.53246H52.8329L53.9876 7.85255C54.0358 8.03126 54.0907 8.24778 54.1526 8.50211C54.2145 8.75643 54.2763 9.02451 54.3382 9.30632C54.4001 9.58127 54.455 9.84934 54.5032 10.1106C54.5582 10.3649 54.5994 10.5848 54.6269 10.7704H54.2866C54.3279 10.5848 54.3726 10.3614 54.4207 10.1002C54.4757 9.83216 54.5307 9.55721 54.5856 9.27539C54.6406 8.9867 54.6956 8.71175 54.7506 8.45056C54.8125 8.18936 54.8675 7.9694 54.9156 7.79069L56.0704 3.53246H57.6994L55.4208 11.4509H53.3999ZM61.8006 3.53246V11.4509H60.254V3.53246H61.8006ZM69.9369 9.68781L70.504 10.822C70.0641 11.0969 69.6276 11.2997 69.1945 11.4303C68.7684 11.5609 68.3628 11.6262 67.9779 11.6262C67.3455 11.6262 66.7819 11.4647 66.287 11.1416C65.799 10.8117 65.414 10.3408 65.1322 9.72905C64.8504 9.1173 64.7095 8.38182 64.7095 7.52261C64.7095 6.8215 64.7954 6.20975 64.9672 5.68735C65.146 5.16495 65.3865 4.73191 65.689 4.38823C65.9914 4.04455 66.3351 3.78679 66.72 3.61495C67.1049 3.4431 67.5105 3.35718 67.9367 3.35718C68.6446 3.35718 69.2323 3.53246 69.6997 3.88302C70.1672 4.23357 70.4902 4.74566 70.6689 5.41928L69.1533 5.76983C69.0364 5.40553 68.8715 5.13746 68.6584 4.96562C68.4453 4.79378 68.2013 4.70785 67.9263 4.70785C67.4452 4.70785 67.0603 4.945 66.7716 5.41928C66.4898 5.89356 66.3488 6.59123 66.3488 7.5123C66.3488 8.41962 66.5138 9.10355 66.8437 9.56409C67.1806 10.0178 67.6308 10.2446 68.1944 10.2446C68.4487 10.2446 68.7203 10.1999 69.0089 10.1106C69.3045 10.0212 69.6138 9.88027 69.9369 9.68781ZM74.6294 10.1621H77.6091V11.4509H73.3096V3.53246H77.506V4.82127H74.6294L74.8562 4.53258V6.97616L74.6294 6.74933H77.1657V8.01752H74.6294L74.8562 7.71851V10.4508L74.6294 10.1621ZM3.45127 17.4912C4.11114 17.4775 4.66447 17.5772 5.11126 17.7902C5.55805 18.0033 5.91548 18.2954 6.18355 18.6666C6.45162 19.0378 6.64408 19.4674 6.76094 19.9554C6.87779 20.4435 6.93621 20.9624 6.93621 21.5123C6.93621 22.0897 6.86748 22.6224 6.73 23.1104C6.5994 23.5985 6.3932 24.0212 6.11138 24.3786C5.82956 24.7361 5.46525 25.0144 5.01847 25.2138C4.57855 25.4062 4.04584 25.4956 3.42034 25.4818C3.06979 25.475 2.69517 25.4681 2.2965 25.4612C1.89783 25.4612 1.51634 25.4578 1.15204 25.4509V17.5325C1.50947 17.5256 1.89439 17.5187 2.30681 17.5119C2.71923 17.505 3.10072 17.4981 3.45127 17.4912ZM3.43065 24.1724C3.92556 24.1724 4.30704 24.0556 4.57512 23.8219C4.84319 23.5882 5.02878 23.272 5.13188 22.8733C5.24186 22.4677 5.29685 22.0175 5.29685 21.5226C5.29685 21.1858 5.26935 20.8593 5.21436 20.5431C5.15938 20.2201 5.06314 19.9279 4.92567 19.6667C4.7882 19.4055 4.59917 19.1993 4.3586 19.0481C4.12489 18.89 3.82245 18.811 3.45127 18.811C3.3138 18.811 3.15227 18.811 2.96668 18.811C2.78109 18.811 2.61956 18.8144 2.48209 18.8213L2.69861 18.5841V24.3992L2.48209 24.1621C2.61956 24.169 2.77766 24.1724 2.95637 24.1724C3.13509 24.1724 3.29318 24.1724 3.43065 24.1724ZM9.18527 24.1621H12.165V25.4509H7.86552V17.5325H12.0619V18.8213H9.18527L9.4121 18.5326V20.9762L9.18527 20.7493H11.7216V22.0175H9.18527L9.4121 21.7185V24.4508L9.18527 24.1621ZM12.7967 25.4509L13.735 17.5325H15.529L16.756 22.3681C16.8041 22.5537 16.8453 22.7633 16.8797 22.997C16.9141 23.2239 16.9484 23.4507 16.9828 23.6775C17.024 23.9043 17.0687 24.1106 17.1168 24.2961H16.6941C16.7491 24.1106 16.8006 23.9009 16.8488 23.6672C16.9038 23.4266 16.9553 23.1895 17.0034 22.9558C17.0515 22.7152 17.0997 22.4987 17.1478 22.3062L18.385 17.5325H20.1172L21.0348 25.4509H19.5089L19.1274 20.8937C19.0999 20.5844 19.0758 20.2544 19.0552 19.9039C19.0415 19.5464 19.0208 19.2165 18.9933 18.9141H19.2305C19.1411 19.2234 19.0586 19.5568 18.983 19.9142C18.9074 20.2716 18.8249 20.6119 18.7356 20.9349L17.5602 25.1622L16.1167 25.2035L15.0032 20.8731C14.9207 20.5637 14.8451 20.2373 14.7764 19.8936C14.7076 19.543 14.6354 19.2165 14.5598 18.9141H14.8176C14.7901 19.2234 14.7592 19.5533 14.7248 19.9039C14.6904 20.2544 14.6595 20.5912 14.632 20.9143L14.2196 25.4509H12.7967ZM23.2466 24.1621H26.2263V25.4509H21.9268V17.5325H26.1232V18.8213H23.2466L23.4734 18.5326V20.9762L23.2466 20.7493H25.7829V22.0175H23.2466L23.4734 21.7185V24.4508L23.2466 24.1621ZM31.7761 25.5643L28.5696 20.172H28.7139V25.4509H27.2911V17.5325L28.6315 17.4294L31.7555 22.7496H31.6421V17.5325H33.065V25.4509L31.7761 25.5643ZM33.6451 25.4509L36.0371 17.5325H37.9136L40.2438 25.4509H38.656L37.4393 21.0174C37.3981 20.8662 37.3465 20.6669 37.2847 20.4194C37.2297 20.1651 37.1678 19.9004 37.0991 19.6255C37.0372 19.3437 36.9754 19.0756 36.9135 18.8213C36.8585 18.567 36.8104 18.3642 36.7692 18.213H37.1403C37.0991 18.3711 37.0475 18.5807 36.9857 18.8419C36.9238 19.0962 36.8551 19.3677 36.7795 19.6564C36.7107 19.9382 36.642 20.2098 36.5733 20.471C36.5114 20.7253 36.4598 20.9315 36.4186 21.0896L35.1917 25.4509H33.6451ZM35.2741 23.8528V22.6774H38.4704V23.8528H35.2741ZM44.9019 24.9973V22.3578L45.1391 22.5846H43.6234V21.2958H46.4588V24.9973C45.9708 25.231 45.4931 25.3925 45.0257 25.4818C44.5651 25.5781 44.1458 25.6262 43.7678 25.6262C43.0873 25.6262 42.4996 25.4715 42.0047 25.1622C41.5098 24.846 41.1283 24.3855 40.8602 23.7806C40.5922 23.1689 40.4581 22.4162 40.4581 21.5226C40.4581 20.5809 40.6093 19.8042 40.9118 19.1925C41.2142 18.5738 41.6129 18.1133 42.1078 17.8109C42.6096 17.5015 43.1526 17.3469 43.7369 17.3469C44.383 17.3469 44.9501 17.5222 45.4381 17.8727C45.933 18.2164 46.2767 18.7319 46.4691 19.4193L45.005 19.7698C44.8813 19.4193 44.7129 19.1547 44.4998 18.9759C44.2867 18.7903 44.029 18.6976 43.7265 18.6976C43.3897 18.6976 43.0976 18.8041 42.8502 19.0172C42.6096 19.2234 42.424 19.5361 42.2934 19.9554C42.1628 20.3679 42.0975 20.8868 42.0975 21.5123C42.0975 22.1378 42.1697 22.6568 42.314 23.0692C42.4584 23.4747 42.668 23.7772 42.9429 23.9765C43.2248 24.1759 43.5616 24.2755 43.9534 24.2755C44.2146 24.2755 44.493 24.2343 44.7885 24.1518C45.0841 24.0624 45.4106 23.9318 45.768 23.76L44.9019 24.9973ZM48.8822 24.1621H51.8619V25.4509H47.5624V17.5325H51.7588V18.8213H48.8822L49.109 18.5326V20.9762L48.8822 20.7493H51.4186V22.0175H48.8822L49.109 21.7185V24.4508L48.8822 24.1621ZM52.4937 25.4509L53.4319 17.5325H55.2259L56.4529 22.3681C56.501 22.5537 56.5422 22.7633 56.5766 22.997C56.611 23.2239 56.6453 23.4507 56.6797 23.6775C56.721 23.9043 56.7656 24.1106 56.8138 24.2961H56.391C56.446 24.1106 56.4976 23.9009 56.5457 23.6672C56.6007 23.4266 56.6522 23.1895 56.7003 22.9558C56.7485 22.7152 56.7966 22.4987 56.8447 22.3062L58.0819 17.5325H59.8141L60.7317 25.4509H59.2058L58.8243 20.8937C58.7968 20.5844 58.7727 20.2544 58.7521 19.9039C58.7384 19.5464 58.7178 19.2165 58.6903 18.9141H58.9274C58.838 19.2234 58.7556 19.5568 58.6799 19.9142C58.6043 20.2716 58.5219 20.6119 58.4325 20.9349L57.2571 25.1622L55.8136 25.2035L54.7001 20.8731C54.6176 20.5637 54.542 20.2373 54.4733 19.8936C54.4045 19.543 54.3324 19.2165 54.2568 18.9141H54.5145C54.487 19.2234 54.4561 19.5533 54.4217 19.9039C54.3874 20.2544 54.3564 20.5912 54.3289 20.9143L53.9165 25.4509H52.4937ZM62.9435 24.1621H65.9232V25.4509H61.6237V17.5325H65.8201V18.8213H62.9435L63.1703 18.5326V20.9762L62.9435 20.7493H65.4799V22.0175H62.9435L63.1703 21.7185V24.4508L62.9435 24.1621ZM71.4731 25.5643L68.2665 20.172H68.4109V25.4509H66.988V17.5325L68.3284 17.4294L71.4524 22.7496H71.339V17.5325H72.7619V25.4509L71.4731 25.5643ZM78.2304 17.5325V18.8213H76.3126L76.5498 18.5841V25.4509H75.0032V18.5841L75.23 18.8213H73.3844V17.5325H78.2304Z" fill="white"/>
</g>
</svg>
