<svg width="66" height="72" viewBox="0 0 66 72" fill="none" xmlns="http://www.w3.org/2000/svg">
<path d="M33.0283 71.0713C41.7456 71.0713 49.9387 67.3755 56.1127 60.6598C61.8401 54.4298 65.2183 46.1513 65.626 37.3448C65.6648 36.4789 65.0436 35.7187 64.2476 35.6764C63.4515 35.6342 62.7526 36.31 62.7138 37.1758C62.3449 45.1798 59.2579 52.7192 54.0353 58.4001C48.4244 64.5034 40.9496 67.8824 33.0089 67.8824C25.0681 67.8824 17.5934 64.5245 11.9825 58.4001C0.391727 45.7923 0.391727 25.2649 11.9825 12.6571C21.8647 1.90767 37.2413 0.112585 48.9291 8.20103L45.648 12.5726L55.0643 11.5378L54.1129 1.29523L50.793 5.73015C37.9209 -3.39311 20.8551 -1.47131 9.92448 10.4185C-2.81174 24.2723 -2.81174 46.7848 9.92448 60.6387C16.1179 67.3755 24.311 71.0713 33.0283 71.0713Z" fill="#27334B"/>
<path d="M48.4242 28.2427C48.4242 28.2216 48.4242 28.2005 48.4048 28.2005C48.4048 28.1582 48.3854 28.1371 48.3854 28.0949C48.3854 28.0737 48.366 28.0315 48.366 28.0104C48.366 27.9893 48.3466 27.9682 48.3466 27.947C48.3077 27.8414 48.2689 27.757 48.2107 27.6725L42.0367 17.8101C41.7649 17.3666 41.3184 17.1132 40.833 17.1132H25.1845C24.6992 17.1132 24.2526 17.3666 23.9808 17.8101L17.8068 27.6514C17.7486 27.7358 17.7098 27.8414 17.6709 27.9259C17.6709 27.947 17.6515 27.9682 17.6515 27.9893C17.6321 28.0104 17.6321 28.0526 17.6321 28.0737C17.6321 28.116 17.6127 28.1371 17.6127 28.1793C17.6127 28.2005 17.6127 28.2216 17.5933 28.2216C17.5739 28.3272 17.5544 28.4328 17.5544 28.5384V52.3813C17.5544 53.2472 18.2146 53.9652 19.0106 53.9652H46.9875C47.7835 53.9652 48.4437 53.2472 48.4437 52.3813V28.5595C48.4437 28.4328 48.4436 28.3272 48.4242 28.2427ZM25.9611 20.281H40.0564L44.2306 26.9545H21.7675L25.9611 20.281ZM45.5314 50.8185H20.4861V30.1434H45.5508V50.8185H45.5314Z" fill="#27334B"/>
</svg>
