<?xml version="1.0" encoding="utf-8"?>
<svg viewBox="0 0 512 512" xmlns="http://www.w3.org/2000/svg">
  <rect height="513.497" rx="55.43" width="510.72" x="0.417" y="-1.073" style=""/>
  <path d="M 370.144 187.163 L 370.144 174.581 C 370.144 174.581 342.021 172.801 321.441 150.415 C 334.797 174.943 357.123 183.975 370.144 187.163 Z" fill="#80c7cf" style=""/>
  <path d="M 150.888 278.447 C 169.843 240.566 203.469 233.602 220.269 232.642 L 220.269 218.305 C 220.269 218.305 166.573 212.076 140.567 264.046 C 140.567 264.046 113.472 316.228 150.975 358.719 C 129.404 319.678 150.888 278.447 150.888 278.447 Z" fill="#80c7cf" style=""/>
  <path d="M 229.896 362.019 C 272.02 354.795 271.858 319.666 271.858 319.666 L 271.858 122.075 L 305.311 122.075 C 303.747 117.364 302.549 112.537 301.73 107.639 L 261.601 107.639 L 261.601 305.266 C 261.601 305.266 262.716 344.17 219.637 347.619 C 219.637 347.619 200.88 349.102 186.904 336.77 C 198.786 364.498 229.896 362.019 229.896 362.019 Z" fill="#80c7cf" style=""/>
  <path d="M 311.989 122.075 L 305.335 122.075 C 308.597 132.584 314.093 142.255 321.441 150.415 C 316.699 141.583 313.501 131.997 311.989 122.075 Z" fill="#e03855" style=""/>
  <path d="M 172.087 300.11 C 172.706 318.545 179.061 329.782 186.954 336.719 C 184.064 329.686 182.52 322.168 182.406 314.56 C 182.406 314.56 183.423 273.626 230.626 275.008 L 230.626 232.655 C 227.214 232.383 223.785 232.362 220.368 232.592 L 220.368 260.509 C 173.114 259.188 172.087 300.11 172.087 300.11 Z" fill="#e03855" style=""/>
  <path d="M 370.144 187.163 L 370.144 220.671 C 324.65 225.479 301.73 187.649 301.73 187.649 L 301.73 304.257 C 298.992 344.506 278.475 361.695 278.475 361.695 C 223.516 412.769 169.695 375.112 169.695 375.112 C 162.827 370.437 156.556 364.932 151.024 358.719 C 156.958 369.469 166.152 380.044 179.954 389.549 C 179.954 389.549 233.315 429.1 288.733 376.146 C 288.733 376.146 310.217 358.021 311.989 318.707 L 311.989 202.111 C 311.989 202.111 334.909 239.943 380.403 235.122 L 380.403 189.031 C 376.941 188.681 373.51 188.055 370.144 187.163 Z" fill="#e03855" style=""/>
  <path d="M 169.695 375.086 C 169.695 375.086 224.37 413.018 278.475 361.671 C 278.475 361.671 300.529 344.929 301.73 304.233 L 301.73 187.649 C 301.73 187.649 324.65 225.479 370.144 220.671 L 370.144 187.163 C 357.123 183.924 334.797 174.893 321.441 150.365 C 314.093 142.205 308.597 132.535 305.335 122.027 L 271.884 122.027 L 271.884 319.716 C 271.884 319.716 271.995 354.795 229.92 362.07 C 229.92 362.07 198.835 364.561 186.928 336.77 C 179.087 329.831 172.73 318.595 172.061 300.159 C 172.061 300.159 173.09 259.238 220.293 260.608 L 220.293 232.642 C 203.444 233.639 169.819 240.566 150.913 278.447 C 150.913 278.447 129.478 319.678 151.049 358.694 C 156.573 364.905 162.836 370.411 169.695 375.086 Z" fill="#fff" style=""/>
</svg>