<?xml version="1.0" encoding="utf-8"?>
<svg viewBox="0 0 62 41" fill="none" xmlns="http://www.w3.org/2000/svg">
  <path d="M 52.243 19.458 C 52.242 19.446 52.24 19.434 52.239 19.423 C 52.236 19.405 52.233 19.386 52.23 19.368 C 52.228 19.353 52.224 19.34 52.221 19.326 C 52.218 19.311 52.214 19.295 52.209 19.28 C 52.206 19.266 52.201 19.251 52.196 19.237 C 52.192 19.222 52.186 19.208 52.181 19.193 C 52.175 19.18 52.17 19.165 52.165 19.153 C 52.154 19.127 52.141 19.101 52.128 19.076 C 52.122 19.065 52.115 19.055 52.108 19.045 C 52.1 19.029 52.091 19.014 52.08 18.999 C 52.073 18.988 52.066 18.977 52.058 18.967 C 52.051 18.957 52.044 18.947 52.038 18.938 L 46.98 12.409 C 46.789 12.161 46.493 12.016 46.179 12.016 L 34.04 12.016 L 34.04 4.984 C 34.04 4.429 33.587 3.98 33.029 3.98 L 1.672 3.98 C 1.113 3.98 0.66 4.429 0.66 4.984 L 0.66 33.112 C 0.66 33.667 1.113 34.117 1.672 34.117 L 4.807 34.117 C 5.277 36.407 7.321 38.135 9.764 38.135 C 12.205 38.135 14.249 36.407 14.72 34.117 L 33.029 34.117 L 37.176 34.117 C 37.647 36.407 39.69 38.135 42.132 38.135 C 44.575 38.135 46.619 36.407 47.088 34.117 L 51.236 34.117 C 51.794 34.117 52.247 33.667 52.247 33.112 L 52.247 19.551 C 52.247 19.519 52.245 19.488 52.243 19.458 Z M 45.68 14.025 L 49.182 18.546 L 34.04 18.546 L 34.04 14.025 L 45.68 14.025 Z M 2.683 10.007 L 32.017 10.007 L 32.017 24.071 L 2.683 24.071 L 2.683 10.007 Z M 32.017 5.989 L 32.017 7.998 L 2.683 7.998 L 2.683 5.989 L 32.017 5.989 Z M 2.683 26.08 L 32.017 26.08 L 32.017 32.108 L 14.72 32.108 C 14.249 29.818 12.206 28.09 9.764 28.09 C 7.321 28.09 5.277 29.818 4.807 32.108 L 2.683 32.108 L 2.683 26.08 Z M 9.764 36.126 C 8.09 36.126 6.729 34.774 6.729 33.112 C 6.729 31.45 8.09 30.099 9.764 30.099 C 11.437 30.099 12.798 31.45 12.798 33.112 C 12.798 34.774 11.437 36.126 9.764 36.126 Z M 42.132 36.126 C 40.459 36.126 39.097 34.774 39.097 33.112 C 39.097 31.45 40.459 30.099 42.132 30.099 C 43.805 30.099 45.167 31.45 45.167 33.112 C 45.167 34.774 43.805 36.126 42.132 36.126 Z M 47.088 32.108 C 46.619 29.818 44.575 28.09 42.132 28.09 C 39.69 28.09 37.647 29.818 37.176 32.108 L 34.04 32.108 L 34.04 20.555 L 50.224 20.555 L 50.224 23.569 L 48.202 23.569 C 47.643 23.569 47.19 24.019 47.19 24.573 C 47.19 25.128 47.643 25.578 48.202 25.578 L 50.224 25.578 L 50.224 32.108 L 47.088 32.108 Z" fill="#27334B" style=""/>
</svg>