<?xml version="1.0" encoding="utf-8"?>
<svg viewBox="0 0 512 512" xmlns="http://www.w3.org/2000/svg">
  <path d="M 372.897 305.178 C 366.541 302.018 335.279 286.752 329.451 284.643 C 323.624 282.537 319.386 281.486 315.146 287.801 C 310.908 294.119 298.721 308.338 295.015 312.551 C 291.302 316.763 287.594 317.292 281.238 314.13 C 274.88 310.973 254.393 304.308 230.105 282.802 C 211.205 266.065 198.443 245.397 194.737 239.079 C 191.025 232.758 194.34 229.344 197.523 226.196 C 200.383 223.368 203.882 218.826 207.059 215.14 C 210.238 211.456 211.299 208.82 213.417 204.608 C 215.537 200.397 214.477 196.712 212.888 193.554 C 211.299 190.394 198.583 159.325 193.282 146.687 C 188.124 134.381 182.882 136.047 178.978 135.852 C 175.274 135.669 171.03 135.631 166.794 135.631 C 162.555 135.631 155.663 137.211 149.835 143.528 C 144.009 149.848 127.584 165.118 127.584 196.182 C 127.584 227.251 150.366 257.262 153.543 261.476 C 156.725 265.688 198.38 329.44 262.164 356.779 C 277.333 363.284 289.176 367.167 298.41 370.074 C 313.641 374.879 327.503 374.201 338.458 372.576 C 350.674 370.765 376.076 357.307 381.377 342.566 C 386.672 327.819 386.672 315.184 385.083 312.551 C 383.496 309.918 379.258 308.338 372.897 305.178 M 256.885 462.424 L 256.8 462.424 C 218.845 462.408 181.622 452.287 149.149 433.158 L 141.425 428.608 L 61.375 449.453 L 82.743 371.976 L 77.715 364.033 C 56.543 330.606 45.359 291.969 45.377 252.299 C 45.423 136.538 140.304 42.36 256.97 42.36 C 313.462 42.38 366.565 64.248 406.497 103.934 C 446.432 143.617 468.409 196.369 468.388 252.468 C 468.339 368.235 373.459 462.424 256.885 462.424 M 436.891 73.777 C 388.846 26.031 324.955 -0.276 256.882 -0.304 C 116.622 -0.304 2.469 113.007 2.412 252.283 C 2.394 296.804 14.111 340.259 36.38 378.567 L 0.28 509.463 L 135.176 474.337 C 172.344 494.462 214.19 505.069 256.782 505.084 L 256.885 505.084 C 397.13 505.084 511.294 391.761 511.351 252.484 C 511.377 184.989 484.934 121.525 436.891 73.777" id="WhatsApp-Logo" style=""/>
</svg>